# AST/ASF file generated using VICON BodyLanguage
# -----------------------------------------------
:version 1.10
:name VICON
:units
  mass 1.0
  length 0.45
  angle deg
:documentation
   .ast/.asf automatically generated from VICON data using
   VICON BodyBuilder and BodyLanguage model FoxedUp or BRILLIANT.MOD
:root
   order TX TY TZ RX RY RZ
   axis XYZ
   position 0 0 0  
   orientation 0 0 0 
:bonedata
  begin
     id 1 
     name lhipjoint
     direction 0.635376 -0.686425 0.353719 
     length 2.47244 
     axis 0 0 0  XYZ
  end
  begin
     id 2 
     name lfemur
     direction 0.34202 -0.939693 0  
     length 7.25268  
     axis 0 0 20  XYZ
    dof rx ry rz
    limits (-160.0 20.0)
           (-70.0 70.0)
           (-60.0 70.0)
  end
  begin
     id 3 
     name ltibia
     direction 0.34202 -0.939693 0   
     length 7.6767   
     axis 0 0 20   XYZ
    dof rx
    limits (-10.0 170.0)
  end
  begin
     id 4 
     name lfoot
     direction 0.0803374 -0.220725 0.972022   
     length 2.22945   
     axis -90 7.62852e-016 20   XYZ
    dof rx rz
    limits (-45.0 90.0)
           (-70.0 20.0)
  end
  begin
     id 5 
     name ltoes
     direction 1.53579e-011 -4.21994e-011 1   
     length 1.11848   
     axis -90 7.62852e-016 20   XYZ
    dof rx
    limits (-90.0 20.0)
  end
  begin
     id 6 
     name rhipjoint
     direction -0.664428 -0.664335 0.342336   
     length 2.55466  
     axis 0 0 0  XYZ 
  end
  begin
     id 7 
     name rfemur
     direction -0.34202 -0.939693 0   
     length 6.83172   
     axis 0 0 -20   XYZ
    dof rx ry rz
    limits (-160.0 20.0)
           (-70.0 70.0)
           (-70.0 60.0)
  end
  begin
     id 8 
     name rtibia
     direction -0.34202 -0.939693 0   
     length 7.62692   
     axis 0 0 -20   XYZ
    dof rx
    limits (-10.0 170.0)
 end
 begin
     id 9 
     name rfoot
     direction -0.0949276 -0.260811 0.960711   
     length 2.19684  
     axis -90 -7.62852e-016 -20   XYZ
    dof rx rz
    limits (-45.0 90.0)
           (-20.0 70.0)
  end
  begin
     id 10 
     name rtoes
     direction -1.53543e-011 -4.2183e-011 1   
     length 1.09848   
     axis -90 -7.62852e-016 -20   XYZ
    dof rx
    limits (-90.0 20.0)
  end
  begin
     id 11 
     name lowerback
     direction 0.0118782 0.999815 -0.0151555   
     length 2.15772   
     axis 0 0 0   XYZ
    dof rx ry rz
    limits (-20.0 45.0)
           (-30.0 30.0)
           (-30.0 30.0)
  end
  begin
     id 12 
     name upperback
     direction 0.00130825 0.999065 0.0432113   
     length 2.14863   
     axis 0 0 0   XYZ
    dof rx ry rz
    limits (-20.0 45.0)
           (-30.0 30.0)
           (-30.0 30.0)
  end
  begin
     id 13 
     name thorax
     direction -0.00347005 0.998773 0.0494011   
     length 2.14936   
     axis 0 0 0   XYZ
    dof rx ry rz
    limits (-20.0 45.0)
           (-30.0 30.0)
           (-30.0 30.0)
  end
  begin
     id 14 
     name lowerneck
     direction -0.0262159 0.99424 0.103921   
     length 1.69373   
     axis 0 0 0   XYZ
    dof rx ry rz
    limits (-20.0 45.0)
           (-30.0 30.0)
           (-30.0 30.0)
  end
  begin
     id 15 
     name upperneck
     direction 0.0353511 0.977394 -0.20845   
     length 1.70857   
     axis 0 0 0   XYZ
    dof rx ry rz
    limits (-20.0 45.0)
           (-30.0 30.0)
           (-30.0 30.0)
  end
  begin
     id 16
     name head
     direction 0.0139214 0.996594 -0.0812836  
     length 1.72777  
     axis 0 0 0   XYZ
    dof rx ry rz
    limits (-20.0 45.0)
           (-30.0 30.0)
           (-30.0 30.0)
  end
  begin
     id 17 
     name lclavicle
     direction 0.841247 0.537205 -0.0609508  
     length 3.55371  
     axis 0 0 0   XYZ
    dof ry rz
    limits (-20.0 10.0)
           (0.0 20.0)
  end
  begin
     id 18 
     name lhumerus
     direction 1 -4.48964e-011 1.60116e-018   
     length 4.91377   
     axis -180 -30 -90   XYZ
    dof rx ry rz
    limits (-60.0 90.0)
           (-90.0 90.0)
           (-90.0 90.0)
  end
  begin
     id 19
     name lradius
     direction 1 -4.48989e-011 -8.93847e-027   
     length 3.00291   
     axis -180 -30 -90   XYZ
    dof rx
    limits (-10.0 170.0)
  end
  begin
     id 20
     name lwrist
     direction 1 -4.48932e-011 -7.31504e-027   
     length 1.50145   
     axis 5.74121e-015 90 90   XYZ
    dof ry
    limits (-180.0 0.0)
 end
  begin
     id 21 
     name lhand
     direction 1 -4.48971e-011 -1.46301e-026   
     length 0.450922   
     axis 9.33524e-015 90 90   XYZ
    dof rx rz
    limits (-90.0 90.0)
           (-45.0 45.0)
  end
  begin
     id 22 
     name lfingers
     direction 1 -4.49039e-011 -2.92602e-026   
     length 0.363545   
     axis 1.86705e-014 90 90   XYZ
    dof rx
    limits (0.0 90.0)
  end
  begin
     id 23
     name lthumb
     direction 0.707107 -6.34941e-011 0.707107   
     length 0.52198   
     axis -90 45 2.85299e-015   XYZ
    dof rx rz
    limits (-45.0 45.0)
           (-45.0 45.0)
  end
  begin
     id 24 
     name rclavicle
     direction -0.825079 0.56158 -0.0622297   
     length 3.39909  
     axis 0 0 0   XYZ 
    dof ry rz
    limits (-10.0 20.0)
           (-20.0 0.0)
  end
  begin
     id 25 
     name rhumerus
     direction -1 -4.48965e-011 1.61691e-027  
     length 4.86725   
     axis -180 30 90   XYZ
    dof rx ry rz
    limits (-90.0 60.0)
           (-90.0 90.0)
           (-90.0 90.0)
  end
  begin
     id 26 
     name rradius
     direction -1 -4.48964e-011 -2.25776e-027   
     length 3.17144   
     axis -180 30 90   XYZ
    dof rx
    limits (-10.0 170.0)
  end
  begin
     id 27 
     name rwrist
     direction -1 -4.48961e-011 -7.31504e-027   
     length 1.58572   
     axis 5.74121e-015 -90 -90   XYZ
    dof ry
    limits (-180.0 0.0)
  end
  begin
     id 28
     name rhand
     direction -1 -4.49013e-011 -1.46301e-026   
     length 0.419368   
     axis 9.33524e-015 -90 -90   XYZ
    dof rx rz
    limits (-90.0 90.0)
           (-45.0 45.0)
  end
  begin
     id 29
     name rfingers
     direction -1 -4.489e-011 -2.92602e-026   
     length 0.338105   
     axis 1.86705e-014 -90 -90   XYZ
    dof rx
    limits (0.0 90.0)
  end
  begin
     id 30
     name rthumb
     direction -0.707107 -6.35022e-011 0.707107   
     length 0.485453   
     axis -90 -45 -2.85299e-015   XYZ
    dof rx rz
    limits (-45.0 45.0)
           (-45.0 45.0)
  end
:hierarchy
  begin
    root lhipjoint rhipjoint lowerback
    lhipjoint lfemur
    lfemur ltibia
    ltibia lfoot
    lfoot ltoes
    rhipjoint rfemur
    rfemur rtibia
    rtibia rfoot
    rfoot rtoes
    lowerback upperback
    upperback thorax
    thorax lowerneck lclavicle rclavicle
    lowerneck upperneck
    upperneck head
    lclavicle lhumerus
    lhumerus lradius
    lradius lwrist
    lwrist lhand lthumb
    lhand lfingers
    rclavicle rhumerus
    rhumerus rradius
    rradius rwrist
    rwrist rhand rthumb
    rhand rfingers
  end

#!OML:ASF H:\Swim 2\Project 1\Capture day 1\Session 1\male.ASF
:FULLY-SPECIFIED
:DEGREES
196
root 2.93075 14.8979 10.9465 102.881 1.45462 3.43898
lowerback -9.40581 1.43653 18.7769
upperback -5.63231 0.458855 -5.40851
thorax -0.787798 -0.362624 -16.9183
lowerneck -15.4519 -0.0178286 -2.11891
upperneck 50.0591 0.148168 2.04487
head 25.258 -0.149427 1.69535
rclavicle 4.47266e-015 2.31522e-014
rhumerus 105.099 -16.1604 -44.6839
rradius 24.7471
rwrist -3.34993
rhand -20.0694 -14.3294
rfingers 7.12502
rthumb 6.27277 -44.2165
lclavicle 4.47266e-015 2.31522e-014
lhumerus 74.1631 30.045 -31.2048
lradius 30.5539
lwrist 53.605
lhand -39.2092 -0.558955
lfingers 7.12502
lthumb -12.2054 29.0649
rfemur -51.6 5.78077 14.2425
rtibia 34.1034
rfoot 15.6632 -8.71235
rtoes -0.531994
lfemur -43.6776 0.706261 -25.181
ltibia 43.8477
lfoot -5.87358 0.808292
ltoes -15.3065
197
root 2.93642 14.9005 10.9281 102.776 1.68427 3.76689
lowerback -9.34293 1.37693 18.8168
upperback -5.57112 0.382507 -5.31265
thorax -0.786222 -0.395603 -16.8313
lowerneck -15.4256 -0.0425647 -2.11987
upperneck 50.0599 0.127354 2.02107
head 25.2473 -0.155147 1.67766
rclavicle -8.94531e-016 1.01815e-014
rhumerus 105.092 -16.1245 -44.8395
rradius 24.7094
rwrist -3.31823
rhand -19.9394 -14.3917
rfingers 7.12502
rthumb 6.39836 -44.2751
lclavicle -8.94531e-016 1.01815e-014
lhumerus 74.1868 30.051 -31.2555
lradius 30.6383
lwrist 53.5701
lhand -39.2335 -0.221244
lfingers 7.12502
lthumb -12.2288 29.4013
rfemur -51.4485 5.76507 14.3639
rtibia 33.2407
rfoot 15.1172 -10.6006
rtoes 0.244841
lfemur -43.0883 0.882259 -25.1004
ltibia 44.0969
lfoot -5.92584 0.68061
ltoes -16.4737
198
root 2.94029 14.9039 10.9065 102.685 1.94797 4.14904
lowerback -9.28361 1.3219 18.8806
upperback -5.52092 0.310501 -5.20351
thorax -0.793683 -0.42864 -16.7423
lowerneck -15.3811 -0.0699043 -2.1364
upperneck 50.0602 0.11417 1.98992
head 25.2266 -0.160717 1.66077
rclavicle 1.65985e-014 -1.08089e-014
rhumerus 105.076 -16.0785 -44.9619
rradius 24.6821
rwrist -3.33383
rhand -19.8403 -14.4152
rfingers 7.12502
rthumb 6.49396 -44.2956
lclavicle 1.65985e-014 -1.08089e-014
lhumerus 74.2329 30.0281 -31.2867
lradius 30.6788
lwrist 53.4965
lhand -39.2398 0.110854
lfingers 7.12502
lthumb -12.2348 29.733
rfemur -51.305 5.71073 14.5283
rtibia 32.4995
rfoot 14.6181 -12.0644
rtoes 0.918201
lfemur -42.5837 1.08502 -24.9933
ltibia 44.3956
lfoot -5.89304 0.514392
ltoes -17.107
199
root 2.94287 14.9079 10.8813 102.616 2.23548 4.57603
lowerback -9.23242 1.27476 18.965
upperback -5.48464 0.247005 -5.08475
thorax -0.809144 -0.459693 -16.6534
lowerneck -15.3176 -0.0971118 -2.16872
upperneck 50.0586 0.109873 1.95693
head 25.1938 -0.16529 1.64816
rclavicle -2.127e-014 -1.39025e-014
rhumerus 105.05 -16.0221 -45.0505
rradius 24.6719
rwrist -3.3782
rhand -19.7663 -14.4257
rfingers 7.12502
rthumb 6.56543 -44.3039
lclavicle -2.127e-014 -1.39025e-014
lhumerus 74.2967 29.9777 -31.293
lradius 30.6802
lwrist 53.4001
lhand -39.2291 0.408563
lfingers 7.12502
lthumb -12.2245 30.0313
rfemur -51.1748 5.63812 14.7058
rtibia 31.8903
rfoot 14.1653 -13.0284
rtoes 1.25506
lfemur -42.1816 1.31038 -24.873
ltibia 44.744
lfoot -5.7597 0.28169
ltoes -17.138
200
root 2.94454 14.9125 10.8522 102.566 2.54079 5.05018
lowerback -9.18827 1.23381 19.0695
upperback -5.46208 0.18992 -4.95593
thorax -0.833939 -0.489984 -16.5642
lowerneck -15.2401 -0.121406 -2.21344
upperneck 50.0664 0.122177 1.9129
head 25.1644 -0.166782 1.63619
rclavicle -2.46493e-014 -3.20292e-014
rhumerus 105.021 -15.9497 -45.1073
rradius 24.6824
rwrist -3.40925
rhand -19.6963 -14.4686
rfingers 7.12502
rthumb 6.63296 -44.3447
lclavicle -2.46493e-014 -3.20292e-014
lhumerus 74.3696 29.8962 -31.2581
lradius 30.6554
lwrist 53.2827
lhand -39.2051 0.661609
lfingers 7.12502
lthumb -12.2014 30.2857
rfemur -51.0519 5.5707 14.8708
rtibia 31.4267
rfoot 13.7899 -13.4812
rtoes 1.18848
lfemur -41.8845 1.54158 -24.7435
ltibia 45.1305
lfoot -5.63776 0.0638744
ltoes -17.552
201
root 2.94571 14.9174 10.8195 102.548 2.85118 5.56116
lowerback -9.16562 1.20185 19.1813
upperback -5.45527 0.141309 -4.81898
thorax -0.861019 -0.517541 -16.4687
lowerneck -15.1468 -0.141374 -2.27088
upperneck 50.0754 0.14953 1.86386
head 25.1276 -0.165122 1.62758
rclavicle -1.11319e-014 -9.16894e-015
rhumerus 104.991 -15.8625 -45.1261
rradius 24.7144
rwrist -3.39882
rhand -19.6251 -14.5772
rfingers 7.12502
rthumb 6.70178 -44.4512
lclavicle -1.11319e-014 -9.16894e-015
lhumerus 74.4407 29.7849 -31.1823
lradius 30.6074
lwrist 53.1456
lhand -39.1749 0.887711
lfingers 7.12502
lthumb -12.1723 30.5136
rfemur -50.9541 5.51537 15.0074
rtibia 31.1269
rfoot 13.5379 -13.441
rtoes 0.699294
lfemur -41.7031 1.77092 -24.62
ltibia 45.5359
lfoot -5.53292 -0.149669
ltoes -18.226
202
root 2.94662 14.9223 10.7828 102.559 3.13505 6.10916
lowerback -9.16915 1.17377 19.2688
upperback -5.45968 0.0953752 -4.67974
thorax -0.88413 -0.543553 -16.3555
lowerneck -15.0383 -0.164159 -2.32548
upperneck 50.0801 0.189503 1.77812
head 25.0778 -0.16073 1.59964
rclavicle -1.98785e-015 -2.66371e-014
rhumerus 104.958 -15.7742 -45.0846
rradius 24.7691
rwrist -3.35724
rhand -19.5532 -14.7548
rfingers 7.12502
rthumb 6.77118 -44.6265
lclavicle -1.98785e-015 -2.66371e-014
lhumerus 74.4943 29.6539 -31.0675
lradius 30.5433
lwrist 52.9884
lhand -39.1516 1.11883
lfingers 7.12502
lthumb -12.1498 30.746
rfemur -50.8824 5.46365 15.0866
rtibia 31.0083
rfoot 13.4253 -12.9948
rtoes 0.0263858
lfemur -41.6263 1.97542 -24.534
ltibia 45.9385
lfoot -5.44984 -0.36413
ltoes -19.0565
203
root 2.9472 14.9269 10.7427 102.605 3.40559 6.68753
lowerback -9.19979 1.14793 19.3557
upperback -5.47791 0.0477953 -4.53792
thorax -0.908286 -0.571744 -16.2393
lowerneck -14.932 -0.167273 -2.39727
upperneck 50.0847 0.256782 1.71297
head 25.0276 -0.148327 1.5939
rclavicle -2.06736e-014 4.09248e-014
rhumerus 104.925 -15.6763 -44.986
rradius 24.8327
rwrist -3.36828
rhand -19.5532 -14.8547
rfingers 7.12502
rthumb 6.77112 -44.7265
lclavicle -2.06736e-014 4.09248e-014
lhumerus 74.5107 29.4884 -30.9227
lradius 30.4654
lwrist 52.7509
lhand -39.141 1.41585
lfingers 7.12502
lthumb -12.1396 31.0436
rfemur -50.8439 5.38536 15.1598
rtibia 31.0809
rfoot 13.4607 -12.196
rtoes -0.763971
lfemur -41.6631 2.1609 -24.4766
ltibia 46.3255
lfoot -5.38233 -0.567769
ltoes -19.9585
204
root 2.94722 14.9309 10.6993 102.69 3.66419 7.29099
lowerback -9.26618 1.12613 19.4311
upperback -5.50813 -0.000117573 -4.38935
thorax -0.925557 -0.599973 -16.1084
lowerneck -14.8344 -0.153803 -2.47586
upperneck 50.0974 0.352244 1.64887
head 24.9894 -0.127529 1.59737
rclavicle 1.31198e-014 3.92351e-014
rhumerus 104.89 -15.5785 -44.8259
rradius 24.9044
rwrist -3.44286
rhand -19.6234 -14.8494
rfingers 7.12502
rthumb 6.70335 -44.7233
lclavicle 1.31198e-014 3.92351e-014
lhumerus 74.4843 29.3082 -30.7662
lradius 30.3702
lwrist 52.4563
lhand -39.1451 1.78264
lfingers 7.12502
lthumb -12.1436 31.4102
rfemur -50.8421 5.26924 15.2469
rtibia 31.3491
rfoot 13.6013 -11.1619
rtoes -1.49411
lfemur -41.8142 2.32231 -24.446
ltibia 46.6848
lfoot -5.33334 -0.735922
ltoes -20.7093
205
root 2.9465 14.9339 10.653 102.807 3.92838 7.9198
lowerback -9.3652 1.10785 19.514
upperback -5.54752 -0.0502489 -4.23277
thorax -0.935955 -0.629457 -15.9731
lowerneck -14.745 -0.11927 -2.57191
upperneck 50.109 0.469589 1.62028
head 24.9527 -0.0994595 1.63034
rclavicle 1.19271e-014 1.09332e-015
rhumerus 104.853 -15.4832 -44.6211
rradius 24.9807
rwrist -3.58599
rhand -19.7647 -14.7036
rfingers 7.12502
rthumb 6.56693 -44.5818
lclavicle 1.19271e-014 1.09332e-015
lhumerus 74.4303 29.1126 -30.5901
lradius 30.2564
lwrist 52.0827
lhand -39.1623 2.23387
lfingers 7.12502
lthumb -12.1601 31.8604
rfemur -50.8651 5.11234 15.3793
rtibia 31.8044
rfoot 13.8087 -9.99592
rtoes -2.08142
lfemur -42.0726 2.46368 -24.4264
ltibia 47.0119
lfoot -5.30325 -0.829994
ltoes -21.2162
206
root 2.94491 14.9354 10.6046 102.947 4.17045 8.55632
lowerback -9.50144 1.09468 19.5639
upperback -5.59225 -0.0983895 -4.07606
thorax -0.929459 -0.655559 -15.8181
lowerneck -14.6615 -0.0674707 -2.67278
upperneck 50.129 0.606177 1.61095
head 24.927 -0.0641794 1.68043
rclavicle 2.78299e-014 2.06239e-014
rhumerus 104.821 -15.3885 -44.4051
rradius 25.0649
rwrist -3.71461
rhand -19.8993 -14.54
rfingers 7.12502
rthumb 6.43703 -44.4222
lclavicle 2.78299e-014 2.06239e-014
lhumerus 74.3661 28.9162 -30.3943
lradius 30.1225
lwrist 51.6649
lhand -39.1765 2.71746
lfingers 7.12502
lthumb -12.1738 32.3432
rfemur -50.8999 4.9129 15.5357
rtibia 32.4327
rfoot 14.0654 -8.75892
rtoes -2.55675
lfemur -42.4192 2.59456 -24.4532
ltibia 47.2986
lfoot -5.2945 -0.81898
ltoes -21.5196
207
root 2.9423 14.9355 10.5548 103.1 4.39587 9.19042
lowerback -9.66352 1.08654 19.5857
upperback -5.63924 -0.142777 -3.92193
thorax -0.908385 -0.677516 -15.6496
lowerneck -14.5745 -0.00608143 -2.7751
upperneck 50.142 0.747146 1.62205
head 24.8907 -0.025517 1.74317
rclavicle -6.36111e-015 -1.39149e-014
rhumerus 104.795 -15.297 -44.206
rradius 25.1647
rwrist -3.77648
rhand -19.9959 -14.4536
rfingers 7.12502
rthumb 6.34375 -44.3386
lclavicle -6.36111e-015 -1.39149e-014
lhumerus 74.3041 28.732 -30.1792
lradius 29.9786
lwrist 51.2318
lhand -39.1829 3.20384
lfingers 7.12502
lthumb -12.18 32.8292
rfemur -50.9376 4.69767 15.709
rtibia 33.2118
rfoot 14.3413 -7.53191
rtoes -2.91209
lfemur -42.842 2.72709 -24.5231
ltibia 47.5408
lfoot -5.31087 -0.679681
ltoes -21.5045
208
root 2.93853 14.9345 10.504 103.268 4.61704 9.80855
lowerback -9.84383 1.08709 19.5951
upperback -5.68999 -0.17793 -3.77268
thorax -0.877139 -0.693611 -15.4796
lowerneck -14.4867 0.0600516 -2.87071
upperneck 50.1531 0.885083 1.64757
head 24.8515 0.0148164 1.81189
rclavicle 4.77083e-015 3.59303e-014
rhumerus 104.78 -15.205 -44.0572
rradius 25.28
rwrist -3.73061
rhand -20.0178 -14.5231
rfingers 7.12502
rthumb 6.32264 -44.4088
lclavicle 4.77083e-015 3.59303e-014
lhumerus 74.2527 28.5718 -29.948
lradius 29.8414
lwrist 50.8228
lhand -39.1787 3.661
lfingers 7.12502
lthumb -12.176 33.2866
rfemur -50.9819 4.49609 15.8996
rtibia 34.1213
rfoot 14.6276 -6.37717
rtoes -3.12259
lfemur -43.3362 2.87713 -24.6252
ltibia 47.7262
lfoot -5.34763 -0.413509
ltoes -21.5437
209
root 2.93371 14.9329 10.4527 103.454 4.84382 10.3913
lowerback -10.0347 1.09686 19.6127
upperback -5.74606 -0.203158 -3.63206
thorax -0.842481 -0.705067 -15.3247
lowerneck -14.4036 0.133928 -2.96147
upperneck 50.1572 1.02056 1.69676
head 24.8058 0.0571876 1.8921
rclavicle 3.02153e-014 2.16675e-014
rhumerus 104.77 -15.1117 -43.9608
rradius 25.403
rwrist -3.67965
rhand -20.0357 -14.6273
rfingers 7.12502
rthumb 6.30534 -44.5135
lclavicle 3.02153e-014 2.16675e-014
lhumerus 74.1907 28.4356 -29.7419
lradius 29.7181
lwrist 50.4521
lhand -39.1669 4.08483
lfingers 7.12502
lthumb -12.1646 33.7111
rfemur -51.0385 4.31985 16.1179
rtibia 35.1307
rfoot 14.9256 -5.32331
rtoes -3.23012
lfemur -43.905 3.05405 -24.7497
ltibia 47.8499
lfoot -5.40558 -0.0194502
ltoes -21.6151
